<?xml version="1.0" encoding="UTF-8"?> <svg xmlns="http://www.w3.org/2000/svg" width="690" height="477" viewBox="0 0 690 477" fill="none"><path d="M54.0002 398.331C53.9782 408.636 55.9481 418.843 59.7969 428.368C63.6457 437.893 69.2975 446.546 76.4279 453.833C83.5583 461.12 92.0269 466.895 101.347 470.828C110.668 474.761 120.657 476.774 130.741 476.752L468.482 476.752C472.21 476.644 475.756 475.083 478.393 472.389C481.03 469.694 482.557 466.07 482.663 462.261C482.596 424.528 467.899 379.268 441.789 352.586C415.68 325.905 380.286 310.886 343.362 310.818L130.741 310.818C120.657 310.796 110.668 312.809 101.347 316.742C92.0269 320.675 83.5583 326.45 76.4279 333.737C69.2975 341.023 63.6457 349.677 59.7969 359.202C55.9481 368.727 53.9782 388.026 54.0002 398.331Z" fill="#D1BCE3"></path><path d="M638.159 0.0001071C632.094 -0.0128248 626.085 1.14548 620.479 3.40855C614.873 5.67162 609.779 8.99487 605.49 13.1875C601.201 17.3802 597.802 22.3596 595.487 27.84C593.172 33.3205 591.987 39.1939 592 45.1232L592 137.52C592.063 139.712 592.982 141.797 594.568 143.348C596.154 144.898 598.287 145.796 600.529 145.858C622.739 145.819 649.38 137.177 665.085 121.825C680.79 106.473 689.63 85.6615 689.67 63.9501V45.1232C689.683 39.1939 688.498 33.3205 686.183 27.84C683.868 22.3596 680.469 17.3802 676.18 13.1875C671.891 8.99487 666.797 5.67162 661.191 3.40855C655.585 1.14549 644.225 -0.0128248 638.159 0.0001071Z" fill="#002EAD"></path><path d="M96.5964 90.2727C83.9034 90.2458 71.3299 92.6544 59.5979 97.3604C47.8658 102.066 37.2061 108.977 28.2308 117.695C19.2555 126.414 12.1414 136.768 7.29677 148.164C2.45217 159.561 -0.0274545 171.774 0.000229271 184.104L0.000345011 380.854C0.132596 385.412 2.05558 389.748 5.37474 392.972C8.69389 396.196 13.1575 398.064 17.8496 398.193C64.3279 398.112 108.879 380.141 141.744 348.217C174.609 316.292 193.109 273.016 193.193 227.868L193.192 184.104C193.22 171.774 190.741 159.561 185.896 148.164C181.051 136.768 173.937 126.414 164.962 117.695C155.987 108.977 145.327 102.066 133.595 97.3604C121.863 92.6544 109.289 90.2458 96.5964 90.2727Z" fill="#1A342E"></path></svg> 